{"accessors" : [{"bufferView" : 0, "byteOffset" : 0, "componentType" : 5123, "count" : 144, "type" : "SCALAR", "max" : [130], "min" : [0]}, {"bufferView" : 1, "byteOffset" : 0, "componentType" : 5126, "count" : 131, "type" : "VEC3", "max" : [38.385826110839844, 38.385826110839844, 14.624378204345703], "min" : [-38.385826110839844, -38.385826110839844, 9.667325973510742], "name" : "POSITION"}, {"bufferView" : 1, "byteOffset" : 12, "componentType" : 5126, "count" : 131, "type" : "VEC3", "max" : [1.0000044107437134, 1.0000044107437134, 1.0000044107437134], "min" : [-1.0000044107437134, -1.0000044107437134, 0], "name" : "NORMAL"}, {"bufferView" : 0, "byteOffset" : 288, "componentType" : 5123, "count" : 48, "type" : "SCALAR", "max" : [47], "min" : [0]}, {"bufferView" : 2, "byteOffset" : 0, "componentType" : 5126, "count" : 48, "type" : "VEC3", "max" : [38.385826110839844, 38.385826110839844, 14.624378204345703], "min" : [-38.385826110839844, -38.385826110839844, 11.22047233581543], "name" : "POSITION"}, {"bufferView" : 2, "byteOffset" : 12, "componentType" : 5126, "count" : 48, "type" : "VEC3", "max" : [1.0000044107437134, 1.0000044107437134, 0.998279869556427], "min" : [-1.0000044107437134, -1.0000044107437134, 0], "name" : "NORMAL"}, {"bufferView" : 0, "byteOffset" : 384, "componentType" : 5123, "count" : 126, "type" : "SCALAR", "max" : [109], "min" : [0]}, {"bufferView" : 3, "byteOffset" : 0, "componentType" : 5126, "count" : 110, "type" : "VEC3", "max" : [38.385826110839844, 38.385826110839844, 9.761797904968262], "min" : [-38.385826110839844, -38.385826110839844, 0], "name" : "POSITION"}, {"bufferView" : 3, "byteOffset" : 12, "componentType" : 5126, "count" : 110, "type" : "VEC3", "max" : [1.0000044107437134, 1.0000044107437134, 0], "min" : [-1.0000044107437134, -1.0000044107437134, -1.0000044107437134], "name" : "NORMAL"}, {"bufferView" : 0, "byteOffset" : 636, "componentType" : 5123, "count" : 648, "type" : "SCALAR", "max" : [535], "min" : [0]}, {"bufferView" : 4, "byteOffset" : 0, "componentType" : 5126, "count" : 536, "type" : "VEC3", "max" : [13.143580436706543, 31.441219329833984, 40.045494079589844], "min" : [-56.45066833496094, -32.33831024169922, 0], "name" : "POSITION"}, {"bufferView" : 4, "byteOffset" : 12, "componentType" : 5126, "count" : 536, "type" : "VEC3", "max" : [1.0000044107437134, 0.999657928943634, 0.018634852021932602], "min" : [-1.0000044107437134, -1.0000044107437134, -0.008219906128942966], "name" : "NORMAL"}, {"bufferView" : 0, "byteOffset" : 1932, "componentType" : 5123, "count" : 96, "type" : "SCALAR", "max" : [95], "min" : [0]}, {"bufferView" : 5, "byteOffset" : 0, "componentType" : 5126, "count" : 96, "type" : "VEC3", "max" : [13.14357852935791, 30.630598068237305, 29.12973976135254], "min" : [-55.44267272949219, -32.33830642700195, 28.736032485961914], "name" : "POSITION"}, {"bufferView" : 5, "byteOffset" : 12, "componentType" : 5126, "count" : 96, "type" : "VEC3", "max" : [1.0000044107437134, 1.0000044107437134, 0], "min" : [-1.0000044107437134, -1.0000044107437134, -1.0000044107437134], "name" : "NORMAL"}, {"bufferView" : 0, "byteOffset" : 2124, "componentType" : 5123, "count" : 60, "type" : "SCALAR", "max" : [59], "min" : [0]}, {"bufferView" : 6, "byteOffset" : 0, "componentType" : 5126, "count" : 60, "type" : "VEC3", "max" : [13.264894485473633, 31.441219329833984, 40.420188903808594], "min" : [-56.317626953125, -26.43617057800293, 33.02850341796875], "name" : "POSITION"}, {"bufferView" : 6, "byteOffset" : 12, "componentType" : 5126, "count" : 60, "type" : "VEC3", "max" : [0.9513605237007141, 0.9854744076728821, 0.30794811248779297], "min" : [-0.9513605237007141, -0.9999688267707825, -0.9517326354980469], "name" : "NORMAL"}, {"bufferView" : 0, "byteOffset" : 2244, "componentType" : 5123, "count" : 1560, "type" : "SCALAR", "max" : [1558], "min" : [0]}, {"bufferView" : 7, "byteOffset" : 0, "componentType" : 5126, "count" : 1559, "type" : "VEC3", "max" : [0.4724409580230713, 67.92610931396484, 4.652119159698486], "min" : [-57.70209884643555, -0.4493180215358734, -0.30694690346717834], "name" : "POSITION"}, {"bufferView" : 7, "byteOffset" : 12, "componentType" : 5126, "count" : 1559, "type" : "VEC3", "max" : [1.0000044107437134, 0.9657421112060547, 0.00813501887023449], "min" : [-1.0000044107437134, -0.9657416343688965, -0.008135002106428146], "name" : "NORMAL"}, {"bufferView" : 0, "byteOffset" : 5364, "componentType" : 5123, "count" : 810, "type" : "SCALAR", "max" : [787], "min" : [0]}, {"bufferView" : 8, "byteOffset" : 0, "componentType" : 5126, "count" : 788, "type" : "VEC3", "max" : [13.38119888305664, 12.992125511169434, 27.55905532836914], "min" : [-13.38119888305664, -21.169570922851562, 0.7185367345809937], "name" : "POSITION"}, {"bufferView" : 8, "byteOffset" : 12, "componentType" : 5126, "count" : 788, "type" : "VEC3", "max" : [0.9999808073043823, 0.996228039264679, 0.9993542432785034], "min" : [-0.9999792575836182, -0.9958934187889099, -0.9048998355865479], "name" : "NORMAL"}, {"bufferView" : 0, "byteOffset" : 6984, "componentType" : 5123, "count" : 36, "type" : "SCALAR", "max" : [35], "min" : [0]}, {"bufferView" : 9, "byteOffset" : 0, "componentType" : 5126, "count" : 36, "type" : "VEC3", "max" : [13.14357852935791, 30.630598068237305, 40.13331985473633], "min" : [-55.44267272949219, -32.33830642700195, 29.12973403930664], "name" : "POSITION"}, {"bufferView" : 9, "byteOffset" : 12, "componentType" : 5126, "count" : 36, "type" : "VEC3", "max" : [0.3081390857696533, 6.874726210526205E-08, 1.0000044107437134], "min" : [-0.3081390857696533, -0.008575699292123318, 0.9513120651245117], "name" : "NORMAL"}, {"bufferView" : 0, "byteOffset" : 7056, "componentType" : 5123, "count" : 5136, "type" : "SCALAR", "max" : [4948], "min" : [0]}, {"bufferView" : 10, "byteOffset" : 0, "componentType" : 5126, "count" : 4949, "type" : "VEC3", "max" : [15.483122825622559, 31.162921905517578, 24.996065139770508], "min" : [-58.79021072387695, -32.73200988769531, 0.6125936508178711], "name" : "POSITION"}, {"bufferView" : 10, "byteOffset" : 12, "componentType" : 5126, "count" : 4949, "type" : "VEC3", "max" : [1.0000044107437134, 0.9999846816062927, 1.0000044107437134], "min" : [-1.0000044107437134, -1.0000044107437134, -1.0000044107437134], "name" : "NORMAL"}, {"bufferView" : 0, "byteOffset" : 17328, "componentType" : 5123, "count" : 588, "type" : "SCALAR", "max" : [580], "min" : [0]}, {"bufferView" : 11, "byteOffset" : 0, "componentType" : 5126, "count" : 581, "type" : "VEC3", "max" : [35.30500793457031, 26.118515014648438, 14.759843826293945], "min" : [-35.30500411987305, -35.433074951171875, -9.378750801086426], "name" : "POSITION"}, {"bufferView" : 11, "byteOffset" : 12, "componentType" : 5126, "count" : 581, "type" : "VEC3", "max" : [0.9998064041137695, 0.9999287128448486, 0.01978020928800106], "min" : [-0.9998064041137695, -1.0000044107437134, -4.830577609027387E-07], "name" : "NORMAL"}, {"bufferView" : 0, "byteOffset" : 18504, "componentType" : 5123, "count" : 144, "type" : "SCALAR", "max" : [143], "min" : [0]}, {"bufferView" : 12, "byteOffset" : 0, "componentType" : 5126, "count" : 144, "type" : "VEC3", "max" : [3.779529571533203, 10.210159301757812, -5.249191761016846], "min" : [-3.779526472091675, -17.846508026123047, -9.378750801086426], "name" : "POSITION"}, {"bufferView" : 12, "byteOffset" : 12, "componentType" : 5126, "count" : 144, "type" : "VEC3", "max" : [1.0000044107437134, 0.9999108910560608, 0.9999384880065918], "min" : [-1.0000044107437134, -0.9998563528060913, -0.9901801943778992], "name" : "NORMAL"}], "asset" : {"generator" : "Aspose.3D 24.1.0", "version" : "2.0"}, "buffers" : [{"uri" : "data:application/octet-stream;base64,", "byteLength" : 244348}], "bufferViews" : [{"buffer" : 0, "byteOffset" : 0, "byteLength" : 18792, "target" : 34963}, {"buffer" : 0, "byteOffset" : 18796, "byteLength" : 3456, "byteStride" : 24, "target" : 34962}, {"buffer" : 0, "byteOffset" : 22256, "byteLength" : 1152, "byteStride" : 24, "target" : 34962}, {"buffer" : 0, "byteOffset" : 23412, "byteLength" : 3024, "byteStride" : 24, "target" : 34962}, {"buffer" : 0, "byteOffset" : 26440, "byteLength" : 15552, "byteStride" : 24, "target" : 34962}, {"buffer" : 0, "byteOffset" : 41996, "byteLength" : 2304, "byteStride" : 24, "target" : 34962}, {"buffer" : 0, "byteOffset" : 44304, "byteLength" : 1440, "byteStride" : 24, "target" : 34962}, {"buffer" : 0, "byteOffset" : 45748, "byteLength" : 37440, "byteStride" : 24, "target" : 34962}, {"buffer" : 0, "byteOffset" : 83192, "byteLength" : 19440, "byteStride" : 24, "target" : 34962}, {"buffer" : 0, "byteOffset" : 102636, "byteLength" : 864, "byteStride" : 24, "target" : 34962}, {"buffer" : 0, "byteOffset" : 103504, "byteLength" : 123264, "byteStride" : 24, "target" : 34962}, {"buffer" : 0, "byteOffset" : 226772, "byteLength" : 14112, "byteStride" : 24, "target" : 34962}, {"buffer" : 0, "byteOffset" : 240888, "byteLength" : 3456, "byteStride" : 24, "target" : 34962}], "materials" : [{"name" : "Base_Grass", "pbrMetallicRoughness" : {"baseColorFactor" : [0.35427600145339966, 0.4204469919204712, 0.14473700523376465, 1], "metallicFactor" : 0, "roughnessFactor" : 0.6800000071525574}, "emissiveFactor" : [0, 0, 0], "alphaMode" : "OPAQUE", "doubleSided" : false}, {"name" : "Base_Path", "pbrMetallicRoughness" : {"baseColorFactor" : [0.34402599930763245, 0.34402599930763245, 0.34402599930763245, 1], "metallicFactor" : 0, "roughnessFactor" : 0.6800000071525574}, "emissiveFactor" : [0, 0, 0], "alphaMode" : "OPAQUE", "doubleSided" : false}, {"name" : "Base_Underground", "pbrMetallicRoughness" : {"baseColorFactor" : [0.375, 0.15000000596046448, 0, 1], "metallicFactor" : 0, "roughnessFactor" : 0.7200000286102295}, "emissiveFactor" : [0, 0, 0], "alphaMode" : "OPAQUE", "doubleSided" : false}, {"name" : "Q_Building_Body_Red", "pbrMetallicRoughness" : {"baseColorFactor" : [0.5091760158538818, 0.21162700653076172, 0.17105300724506378, 1], "metallicFactor" : 0, "roughnessFactor" : 0.5600000023841858}, "emissiveFactor" : [0, 0, 0], "alphaMode" : "OPAQUE", "doubleSided" : false}, {"name" : "Q_Building_Body_White", "pbrMetallicRoughness" : {"baseColorFactor" : [1, 1, 1, 1], "metallicFactor" : 0, "roughnessFactor" : 0.6200000047683716}, "emissiveFactor" : [0, 0, 0], "alphaMode" : "OPAQUE", "doubleSided" : false}, {"name" : "Q_Building_Body_White", "pbrMetallicRoughness" : {"baseColorFactor" : [1, 1, 1, 1], "metallicFactor" : 0, "roughnessFactor" : 0.6200000047683716}, "emissiveFactor" : [0, 0, 0], "alphaMode" : "OPAQUE", "doubleSided" : false}, {"name" : "Q_Building_Body_White", "pbrMetallicRoughness" : {"baseColorFactor" : [1, 1, 1, 1], "metallicFactor" : 0, "roughnessFactor" : 0.6200000047683716}, "emissiveFactor" : [0, 0, 0], "alphaMode" : "OPAQUE", "doubleSided" : false}, {"name" : "Q_Building_Body_Metal", "pbrMetallicRoughness" : {"baseColorFactor" : [0.6973680257797241, 0.6973680257797241, 0.6973680257797241, 1], "metallicFactor" : 0.3799999952316284, "roughnessFactor" : 0.6000000238418579}, "emissiveFactor" : [0, 0, 0], "alphaMode" : "OPAQUE", "doubleSided" : false}, {"name" : "Q_Building_Body_Metal", "pbrMetallicRoughness" : {"baseColorFactor" : [0.6973680257797241, 0.6973680257797241, 0.6973680257797241, 1], "metallicFactor" : 0.3799999952316284, "roughnessFactor" : 0.6000000238418579}, "emissiveFactor" : [0, 0, 0], "alphaMode" : "OPAQUE", "doubleSided" : false}, {"name" : "Q_Building_Body_White", "pbrMetallicRoughness" : {"baseColorFactor" : [1, 1, 1, 1], "metallicFactor" : 0, "roughnessFactor" : 0.6200000047683716}, "emissiveFactor" : [0, 0, 0], "alphaMode" : "OPAQUE", "doubleSided" : false}, {"name" : "Q_Building_Window", "pbrMetallicRoughness" : {"baseColorFactor" : [0.4671050012111664, 0.6321619749069214, 0.8422350287437439, 1], "metallicFactor" : 0.7400000095367432, "roughnessFactor" : 0.07999999821186066}, "emissiveFactor" : [0, 0, 0], "alphaMode" : "OPAQUE", "doubleSided" : false}, {"name" : "adskMatQ_Building_Door_Frames", "pbrMetallicRoughness" : {"baseColorFactor" : [0.019736800342798233, 0.019736800342798233, 0.019736800342798233, 1], "metallicFactor" : 0, "roughnessFactor" : 0.3400000035762787}, "emissiveFactor" : [0, 0, 0], "alphaMode" : "OPAQUE", "doubleSided" : false}], "meshes" : [{"primitives" : [{"attributes" : {"POSITION" : 1, "NORMAL" : 2}, "indices" : 0, "material" : 0, "mode" : 4}, {"attributes" : {"POSITION" : 4, "NORMAL" : 5}, "indices" : 3, "material" : 1, "mode" : 4}, {"attributes" : {"POSITION" : 7, "NORMAL" : 8}, "indices" : 6, "material" : 2, "mode" : 4}]}, {"primitives" : [{"attributes" : {"POSITION" : 10, "NORMAL" : 11}, "indices" : 9, "material" : 3, "mode" : 4}]}, {"primitives" : [{"attributes" : {"POSITION" : 13, "NORMAL" : 14}, "indices" : 12, "material" : 4, "mode" : 4}]}, {"primitives" : [{"attributes" : {"POSITION" : 16, "NORMAL" : 17}, "indices" : 15, "material" : 5, "mode" : 4}]}, {"primitives" : [{"attributes" : {"POSITION" : 19, "NORMAL" : 20}, "indices" : 18, "material" : 6, "mode" : 4}]}, {"primitives" : [{"attributes" : {"POSITION" : 22, "NORMAL" : 23}, "indices" : 21, "material" : 7, "mode" : 4}]}, {"primitives" : [{"attributes" : {"POSITION" : 25, "NORMAL" : 26}, "indices" : 24, "material" : 8, "mode" : 4}]}, {"primitives" : [{"attributes" : {"POSITION" : 28, "NORMAL" : 29}, "indices" : 27, "material" : 9, "mode" : 4}]}, {"primitives" : [{"attributes" : {"POSITION" : 31, "NORMAL" : 32}, "indices" : 30, "material" : 10, "mode" : 4}]}, {"primitives" : [{"attributes" : {"POSITION" : 34, "NORMAL" : 35}, "indices" : 33, "material" : 11, "mode" : 4}]}], "nodes" : [{"matrix" : [0.0254, 0, 0, 0, 0, 0.0254, 0, 0, 0, 0, 0.0254, 0, 0, 0, 0, 1], "mesh" : 0, "name" : "Base"}, {"children" : [0], "matrix" : [1, 0, 0, 0, 0, 0, -1, 0, 0, 1, 0, 0, 0, 0, 0, 1], "name" : "Node #1"}, {"matrix" : [0.0254, 0, 0, 0, 0, 0.0254, 0, 0, 0, 0, 0.0254, 0, 0, 0, 0, 1], "mesh" : 1, "name" : "Q_Building-Body"}, {"children" : [2], "matrix" : [-1, -0, 0, 0, 0, 0, -1, 0, 0, 1, 0, 0, -0.550000004196167, 0.2999999053955078, -0.02010991289615631, 1], "name" : "Node #3"}, {"matrix" : [0.0254, 0, 0, 0, 0, 0.0254, 0, 0, 0, 0, 0.0254, 0, 0, 0, 0, 1], "mesh" : 2, "name" : "Q_Building-Roof-Sup"}, {"children" : [4], "matrix" : [-1.0193500518798828, -0, 0, 0, 0, 0, -1.0193500518798828, 0, 0, 1.0193500518798828, 0, 0, -0.5474450729370117, 0.28756112976074216, -0.03142036290168762, 1], "name" : "Node #5"}, {"matrix" : [0.0254, 0, 0, 0, 0, 0.0254, 0, 0, 0, 0, 0.0254, 0, 0, 0, 0, 1], "mesh" : 3, "name" : "Q_Building-Roof-Border"}, {"children" : [6], "matrix" : [-1, -0, 0, 0, 0, 0, -1, 0, 0, 1, 0, 0, -0.5461285835266113, 0.2999999053955078, -0.020109915924072266, 1], "name" : "Node #7"}, {"matrix" : [0.0254, 0, 0, 0, 0, 0.0254, 0, 0, 0, 0, 0.0254, 0, 0, 0, 0, 1], "mesh" : 4, "name" : "Q_Building-Pillars"}, {"children" : [8], "matrix" : [-0.025863826274871826, -3.4924596548080444E-10, -0.9996655583381651, 0, 0.999655485153198, 0.0044916835613548756, -0.025863563641905785, 0, -0.004490181338042021, 0.9999898672103882, 0.0001161720138043165, 0, -0.8566862747192382, 1.0298259002685546, -0.7874139526367188, 1], "name" : "Node #9"}, {"matrix" : [0.0254, 0, 0, 0, 0, 0.0254, 0, 0, 0, 0, 0.0254, 0, 0, 0, 0, 1], "mesh" : 5, "name" : "Q_Building-Middle"}, {"children" : [10], "matrix" : [1, 0, 0, 0, 0, 0, -1, 0, 0, 1, 0, 0, 0, 0.560000023651123, -0.11871693000793457, 1], "name" : "Node #11"}, {"matrix" : [0.0254, 0, 0, 0, 0, 0.0254, 0, 0, 0, 0, 0.0254, 0, 0, 0, 0, 1], "mesh" : 6, "name" : "Q_Building-Roof"}, {"children" : [12], "matrix" : [-1.0193500518798828, -0, 0, 0, 0, -8.911440829706407E-08, -1.0193500518798828, 0, 0, 1.0193500518798828, -8.911440829706407E-08, 0, -0.5474450729370117, 0.28756112976074216, -0.03142029931545257, 1], "name" : "Node #13"}, {"matrix" : [0.0254, 0, 0, 0, 0, 0.0254, 0, 0, 0, 0, 0.0254, 0, 0, 0, 0, 1], "mesh" : 7, "name" : "Q_Building-Window-Frames"}, {"children" : [14], "matrix" : [-1, -0, 0, 0, 0, -8.742277657347586E-08, -1, 0, 0, 1, -8.742277657347586E-08, 0, -0.550000004196167, 0.2999999053955078, -0.02010991289615631, 1], "name" : "Node #15"}, {"matrix" : [0.0254, 0, 0, 0, 0, 0.0254, 0, 0, 0, 0, 0.0254, 0, 0, 0, 0, 1], "mesh" : 8, "name" : "Q_Building-Windows"}, {"children" : [16], "matrix" : [1, 0, 0, 0, 0, 0, -1, 0, 0, 1, 0, 0, 0, 0.560000023651123, -0.11871693000793457, 1], "name" : "Node #17"}, {"matrix" : [0.0254, 0, 0, 0, 0, 0.0254, 0, 0, 0, 0, 0.0254, 0, 0, 0, 0, 1], "mesh" : 9, "name" : "Q_Building-Door-Frames"}, {"children" : [18], "matrix" : [1, 0, 0, 0, 0, 0, -1, 0, 0, 1, 0, 0, 0, 0.560000023651123, -0.11871693000793457, 1], "name" : "Node #19"}], "scene" : 0, "scenes" : [{"nodes" : [1, 3, 5, 7, 9, 11, 13, 15, 17, 19]}]}