<?xml version="1.0" encoding="UTF-8" standalone="no"?>
<!DOCTYPE svg PUBLIC "-//W3C//DTD SVG 1.1//EN" "http://www.w3.org/Graphics/SVG/1.1/DTD/svg11.dtd">
<svg width="100%" height="100%" viewBox="0 0 1000 1000" version="1.1" xmlns="http://www.w3.org/2000/svg" xmlns:xlink="http://www.w3.org/1999/xlink" xml:space="preserve" xmlns:serif="http://www.serif.com/" style="fill-rule:evenodd;clip-rule:evenodd;stroke-linecap:round;stroke-linejoin:round;stroke-miterlimit:1.5;">
    <g id="pencil" transform="matrix(1,0,0,1,40.0501,-40.0501)">
        <g transform="matrix(0.748512,0.748512,-0.870099,0.870099,536.037,-271.695)">
            <path d="M632.858,242.447L632.858,697.544C632.858,706.515 624.392,713.798 613.964,713.798L368.346,713.798C357.919,713.798 349.453,706.515 349.453,697.544L349.453,242.447C349.453,233.476 357.919,226.194 368.346,226.194L613.964,226.194C624.392,226.194 632.858,233.476 632.858,242.447Z" style="fill:rgb(64,169,255);stroke:rgb(64,169,255);stroke-width:0.87px;"/>
        </g>
        <g transform="matrix(0.748512,0.748512,-0.145017,0.145017,460.984,-195.868)">
            <path d="M632.858,323.714L632.858,616.277C632.858,670.1 624.392,713.798 613.964,713.798L368.346,713.798C357.919,713.798 349.453,670.1 349.453,616.277L349.453,323.714C349.453,269.891 357.919,226.194 368.346,226.194L613.964,226.194C624.392,226.194 632.858,269.891 632.858,323.714Z" style="fill:rgb(64,169,255);stroke:rgb(64,169,255);stroke-width:1.31px;"/>
        </g>
        <g transform="matrix(-0.658647,-0.658647,0.668723,-0.668723,-77.0852,1735.97)">
            <path d="M500.475,767.322L634.672,978.802L366.278,978.802L500.475,767.322Z" style="fill:rgb(64,169,255);stroke:rgb(64,169,255);stroke-width:31.96px;"/>
        </g>
    </g>
</svg>
