<?xml version="1.0" encoding="UTF-8" standalone="no"?>
<!DOCTYPE svg PUBLIC "-//W3C//DTD SVG 1.1//EN" "http://www.w3.org/Graphics/SVG/1.1/DTD/svg11.dtd">
<svg width="100%" height="100%" viewBox="0 0 1000 1000" version="1.1" xmlns="http://www.w3.org/2000/svg" xmlns:xlink="http://www.w3.org/1999/xlink" xml:space="preserve" xmlns:serif="http://www.serif.com/" style="fill-rule:evenodd;clip-rule:evenodd;stroke-linejoin:round;stroke-miterlimit:2;">
    <g transform="matrix(1.23194,0,0,1.01552,-231.937,-15.5167)">
        <ellipse cx="594.135" cy="507.64" rx="405.865" ry="492.36" style="fill:rgb(211,211,211);"/>
    </g>
    <g transform="matrix(1,0,0,1,-57.6146,24.2183)">
        <path d="M638.723,173.147L638.723,778.417C638.723,823.182 602.38,859.525 557.615,859.525C512.849,859.525 476.506,823.182 476.506,778.417L476.506,173.147C476.506,128.382 512.849,92.038 557.615,92.038C602.38,92.038 638.723,128.382 638.723,173.147Z" style="fill:rgb(102,102,102);"/>
    </g>
    <g transform="matrix(6.12323e-17,1,-1,6.12323e-17,975.782,-57.6146)">
        <path d="M638.723,173.147L638.723,778.417C638.723,823.182 602.38,859.525 557.615,859.525C512.849,859.525 476.506,823.182 476.506,778.417L476.506,173.147C476.506,128.382 512.849,92.038 557.615,92.038C602.38,92.038 638.723,128.382 638.723,173.147Z" style="fill:rgb(102,102,102);"/>
    </g>
</svg>
