<?xml version="1.0" encoding="UTF-8" standalone="no"?>
<!DOCTYPE svg PUBLIC "-//W3C//DTD SVG 1.1//EN" "http://www.w3.org/Graphics/SVG/1.1/DTD/svg11.dtd">
<svg width="100%" height="100%" viewBox="0 0 1000 1000" version="1.1" xmlns="http://www.w3.org/2000/svg" xmlns:xlink="http://www.w3.org/1999/xlink" xml:space="preserve" xmlns:serif="http://www.serif.com/" style="fill-rule:evenodd;clip-rule:evenodd;stroke-linejoin:round;stroke-miterlimit:2;">
    <g transform="matrix(1.03766,-1.03766,0.514566,0.514566,-6.50286,479.684)">
        <path d="M541.642,202.715L541.642,821.097C541.642,877.979 518.742,924.16 490.534,924.16C462.327,924.16 439.426,877.979 439.426,821.097L439.426,202.715C439.426,145.833 462.327,99.651 490.534,99.651C518.742,99.651 541.642,145.833 541.642,202.715Z" style="fill:rgb(203,203,203);"/>
    </g>
    <g transform="matrix(1.03766,-1.03766,0.514566,0.514566,-272.419,479.684)">
        <path d="M541.642,202.715L541.642,821.097C541.642,877.979 518.742,924.16 490.534,924.16C462.327,924.16 439.426,877.979 439.426,821.097L439.426,202.715C439.426,145.833 462.327,99.651 490.534,99.651C518.742,99.651 541.642,145.833 541.642,202.715Z" style="fill:rgb(161,161,161);"/>
    </g>
    <g transform="matrix(1.03766,-1.03766,0.514566,0.514566,-538.334,479.684)">
        <path d="M541.642,202.715L541.642,821.097C541.642,877.979 518.742,924.16 490.534,924.16C462.327,924.16 439.426,877.979 439.426,821.097L439.426,202.715C439.426,145.833 462.327,99.651 490.534,99.651C518.742,99.651 541.642,145.833 541.642,202.715Z" style="fill:rgb(105,105,105);"/>
    </g>
    <g transform="matrix(1.03766,1.03766,-0.514566,0.514566,520.316,-6.50286)">
        <path d="M541.642,202.715L541.642,821.097C541.642,877.979 518.742,924.16 490.534,924.16C462.327,924.16 439.426,877.979 439.426,821.097L439.426,202.715C439.426,145.833 462.327,99.651 490.534,99.651C518.742,99.651 541.642,145.833 541.642,202.715Z" style="fill:rgb(203,203,203);"/>
    </g>
    <g transform="matrix(1.03766,1.03766,-0.514566,0.514566,254.4,-6.50286)">
        <path d="M541.642,202.715L541.642,821.097C541.642,877.979 518.742,924.16 490.534,924.16C462.327,924.16 439.426,877.979 439.426,821.097L439.426,202.715C439.426,145.833 462.327,99.651 490.534,99.651C518.742,99.651 541.642,145.833 541.642,202.715Z" style="fill:rgb(161,161,161);"/>
    </g>
    <g transform="matrix(1.03766,1.03766,-0.514566,0.514566,-11.5157,-6.50286)">
        <path d="M541.642,202.715L541.642,821.097C541.642,877.979 518.742,924.16 490.534,924.16C462.327,924.16 439.426,877.979 439.426,821.097L439.426,202.715C439.426,145.833 462.327,99.651 490.534,99.651C518.742,99.651 541.642,145.833 541.642,202.715Z" style="fill:rgb(105,105,105);"/>
    </g>
</svg>
